# Blender v2.82 (sub 7) OBJ File: 'Pomaria_0_int.blend'
# www.blender.org
mtllib ceiling.mtl
usemtl default
v -13.110000 -3.190001 2.400000
v -13.110000 4.119999 2.400000
v 1.359796 -3.190000 2.400000
v 1.359796 4.120000 2.400000
v -13.110000 -3.190001 2.600000
v -13.110000 4.119999 2.600000
v 1.359796 -3.190000 2.600000
v 1.359796 4.120000 2.600000
vt 0.955869 0.980023
vt 0.484998 0.980023
vt 0.955869 0.009703
vt 0.484998 0.009703
vt 0.973847 0.980023
vt 0.973847 0.009703
vt 0.986730 0.980023
vt 0.986730 0.009703
vt 0.999871 0.995098
vt 0.986988 0.995098
vt 0.999871 0.504902
vt 0.986988 0.504902
vt 0.973590 0.980023
vt 0.960707 0.980023
vt 0.973590 0.009703
vt 0.960707 0.009703
vt 0.999871 0.495098
vt 0.986988 0.495098
vt 0.986988 0.004902
vt 0.999871 0.004902
vt 0.475580 0.980023
vt 0.004709 0.009703
vt 0.475580 0.009703
vt 0.004709 0.980023
vn 0.0000 0.0000 -1.0000
vn 0.0000 -1.0000 0.0000
vn -1.0000 0.0000 0.0000
vn -0.0000 1.0000 0.0000
vn 1.0000 0.0000 0.0000
vn -0.0000 0.0000 1.0000
f 1/1/1 2/2/1 3/3/1
f 2/2/1 4/4/1 3/3/1
f 1/5/2 3/6/2 5/7/2
f 3/6/2 7/8/2 5/7/2
f 1/9/3 5/10/3 2/11/3
f 5/10/3 6/12/3 2/11/3
f 2/13/4 6/14/4 4/15/4
f 6/14/4 8/16/4 4/15/4
f 4/17/5 8/18/5 7/19/5
f 7/19/5 3/20/5 4/17/5
f 6/21/6 7/22/6 8/23/6
f 6/21/6 5/24/6 7/22/6
