# Blender v2.82 (sub 7) OBJ File: 'Ihlen_1_int.blend'
# www.blender.org
mtllib floor_2.mtl
usemtl default
v 5.450000 3.510000 0.000000
v 5.450000 -1.990000 0.000000
v -5.600000 -1.990000 0.000000
v -5.600000 3.510000 0.000000
v -0.940000 3.510000 0.000000
v -0.940000 7.360000 0.000000
v -5.590001 7.360001 0.000000
v -5.590001 11.000000 0.000000
v -0.886831 11.000000 0.000000
v -0.886831 8.410000 0.000000
v 1.240000 8.410000 0.000000
v 1.240000 11.000000 0.000000
v 5.354258 11.000000 0.000000
v 5.354258 8.370000 0.000000
v 5.230000 8.370000 0.000000
v 5.230000 3.510000 0.000000
v 5.450000 3.510000 -0.200000
v 5.450000 -1.990000 -0.200000
v -5.600000 -1.990000 -0.200000
v -5.600000 3.510000 -0.200000
v -0.940000 3.510000 -0.200000
v -0.940000 7.360000 -0.200000
v -5.590001 7.360001 -0.200000
v -5.590001 11.000000 -0.200000
v -0.886831 11.000000 -0.200000
v -0.886831 8.410000 -0.200000
v 1.240000 8.410000 -0.200000
v 1.240000 11.000000 -0.200000
v 5.354258 11.000000 -0.200000
v 5.354258 8.370000 -0.200000
v 5.230000 8.370000 -0.200000
v 5.230000 3.510000 -0.200000
vt 0.986173 0.006888
vt 0.986173 0.298513
vt 0.976501 0.298513
vt 0.976501 0.556204
vt 0.981964 0.556204
vt 0.981964 0.695654
vt 0.801086 0.695654
vt 0.801086 0.558325
vt 0.707582 0.558325
vt 0.707582 0.695654
vt 0.500813 0.695654
vt 0.500813 0.502651
vt 0.705245 0.502651
vt 0.705245 0.298513
vt 0.500374 0.298513
vt 0.500374 0.006888
vt 0.490658 0.404029
vt 0.490658 0.695654
vt 0.480986 0.404029
vt 0.486448 0.146338
vt 0.480986 0.146338
vt 0.486448 0.006888
vt 0.305570 0.006888
vt 0.305570 0.144217
vt 0.212067 0.006888
vt 0.212067 0.144217
vt 0.005298 0.006888
vt 0.005298 0.199891
vt 0.209729 0.199891
vt 0.004858 0.404029
vt 0.209729 0.404029
vt 0.004858 0.695654
vt 0.009057 0.997084
vt 0.009057 0.705458
vt 0.017849 0.997084
vt 0.017849 0.705458
vt 0.991119 0.591761
vt 0.991119 0.005859
vt 0.999912 0.591761
vt 0.999912 0.005859
vt 0.000088 0.997084
vt 0.000088 0.705458
vt 0.008881 0.997084
vt 0.008881 0.705458
vt 0.035963 0.952099
vt 0.035962 0.705013
vt 0.044755 0.952099
vt 0.044755 0.705013
vt 0.062868 0.908721
vt 0.062868 0.704583
vt 0.071661 0.908721
vt 0.071661 0.704583
vt 0.053724 0.705007
vt 0.053724 0.951564
vt 0.044931 0.705007
vt 0.044931 0.951564
vt 0.071837 0.897475
vt 0.071837 0.704472
vt 0.080630 0.897475
vt 0.080630 0.704472
vt 0.035787 0.705036
vt 0.035787 0.954411
vt 0.026994 0.705036
vt 0.026994 0.954411
vt 0.089774 0.841244
vt 0.089774 0.703915
vt 0.098567 0.841244
vt 0.098567 0.703915
vt 0.107712 0.816440
vt 0.107712 0.703670
vt 0.116504 0.816440
vt 0.116504 0.703670
vt 0.098743 0.841244
vt 0.098743 0.703915
vt 0.107536 0.841244
vt 0.107536 0.703915
vt 0.062693 0.704723
vt 0.062693 0.922873
vt 0.053900 0.704723
vt 0.053900 0.922873
vt 0.089598 0.703936
vt 0.089598 0.843387
vt 0.080806 0.703936
vt 0.080806 0.843387
vt 0.116647 0.702648
vt 0.122110 0.702648
vt 0.116647 0.713253
vt 0.122110 0.713253
vt 0.018025 0.962810
vt 0.018025 0.705119
vt 0.026818 0.962810
vt 0.026818 0.705119
vn 0.0000 0.0000 1.0000
vn 0.0000 0.0000 -1.0000
vn 1.0000 0.0000 0.0000
vn 0.0000 -1.0000 0.0000
vn -1.0000 0.0000 0.0000
vn -0.0000 1.0000 0.0000
f 2/1/1 1/2/1 16/3/1
f 15/4/1 14/5/1 13/6/1
f 13/6/1 12/7/1 11/8/1
f 10/9/1 9/10/1 8/11/1
f 8/11/1 7/12/1 6/13/1
f 5/14/1 4/15/1 3/16/1
f 3/16/1 2/1/1 16/3/1
f 15/4/1 13/6/1 11/8/1
f 10/9/1 8/11/1 6/13/1
f 5/14/1 3/16/1 16/3/1
f 16/3/1 15/4/1 11/8/1
f 11/8/1 10/9/1 6/13/1
f 6/13/1 5/14/1 16/3/1
f 16/3/1 11/8/1 6/13/1
f 17/17/2 18/18/2 32/19/2
f 30/20/2 31/21/2 29/22/2
f 28/23/2 29/22/2 27/24/2
f 25/25/2 26/26/2 24/27/2
f 23/28/2 24/27/2 22/29/2
f 20/30/2 21/31/2 19/32/2
f 18/18/2 19/32/2 32/19/2
f 29/22/2 31/21/2 27/24/2
f 24/27/2 26/26/2 22/29/2
f 19/32/2 21/31/2 32/19/2
f 31/21/2 32/19/2 27/24/2
f 26/26/2 27/24/2 22/29/2
f 21/31/2 22/29/2 32/19/2
f 27/24/2 32/19/2 22/29/2
f 1/33/3 2/34/3 17/35/3
f 17/35/3 2/34/3 18/36/3
f 2/37/4 3/38/4 18/39/4
f 18/39/4 3/38/4 19/40/4
f 3/41/5 4/42/5 19/43/5
f 19/43/5 4/42/5 20/44/5
f 4/45/6 5/46/6 20/47/6
f 20/47/6 5/46/6 21/48/6
f 5/49/5 6/50/5 21/51/5
f 21/51/5 6/50/5 22/52/5
f 6/53/4 7/54/4 22/55/4
f 22/55/4 7/54/4 23/56/4
f 7/57/5 8/58/5 23/59/5
f 23/59/5 8/58/5 24/60/5
f 8/61/6 9/62/6 24/63/6
f 24/63/6 9/62/6 25/64/6
f 9/65/3 10/66/3 25/67/3
f 25/67/3 10/66/3 26/68/3
f 10/69/6 11/70/6 26/71/6
f 26/71/6 11/70/6 27/72/6
f 11/73/5 12/74/5 27/75/5
f 27/75/5 12/74/5 28/76/5
f 12/77/6 13/78/6 28/79/6
f 28/79/6 13/78/6 29/80/6
f 13/81/3 14/82/3 29/83/3
f 29/83/3 14/82/3 30/84/3
f 14/85/4 15/86/4 30/87/4
f 30/87/4 15/86/4 31/88/4
f 15/89/3 16/90/3 31/91/3
f 31/91/3 16/90/3 32/92/3
