# Blender v2.82 (sub 7) OBJ File: 'Ihlen_0_int.blend'
# www.blender.org
mtllib floor_0.mtl
usemtl default
v 1.340000 4.850000 -0.180000
v 1.340000 -1.780000 -0.180000
v -5.500000 4.849999 -0.180000
v -5.500000 -1.780000 -0.180000
v 1.340000 4.850000 0.000000
v 1.340000 -1.780000 0.000000
v -5.500000 4.849999 0.000000
v -5.500000 -1.780000 0.000000
vt 0.968796 0.502817
vt 0.491556 0.502817
vt 0.968796 0.004978
vt 0.491556 0.004978
vt 0.986654 0.004978
vt 0.986654 0.502817
vt 0.973698 0.004978
vt 0.973698 0.502817
vt 0.013086 0.995174
vt 0.000130 0.995174
vt 0.013086 0.512621
vt 0.000130 0.512621
vt 0.986914 0.004978
vt 0.999870 0.004978
vt 0.986914 0.502817
vt 0.999870 0.502817
vt 0.026302 0.995174
vt 0.013346 0.995174
vt 0.013346 0.512621
vt 0.026302 0.512621
vt 0.004772 0.004978
vt 0.482012 0.502817
vt 0.004772 0.502817
vt 0.482012 0.004978
vn 0.0000 0.0000 -1.0000
vn -0.0000 1.0000 0.0000
vn 1.0000 0.0000 0.0000
vn 0.0000 -1.0000 0.0000
vn -1.0000 0.0000 0.0000
vn 0.0000 0.0000 1.0000
f 1/1/1 2/2/1 3/3/1
f 2/2/1 4/4/1 3/3/1
f 1/5/2 3/6/2 5/7/2
f 3/6/2 7/8/2 5/7/2
f 1/9/3 5/10/3 2/11/3
f 5/10/3 6/12/3 2/11/3
f 2/13/4 6/14/4 4/15/4
f 6/14/4 8/16/4 4/15/4
f 4/17/5 8/18/5 7/19/5
f 7/19/5 3/20/5 4/17/5
f 6/21/6 7/22/6 8/23/6
f 6/21/6 5/24/6 7/22/6
