# Blender v2.82 (sub 7) OBJ File: 'Ihlen_0_int.blend'
# www.blender.org
mtllib floor_4.mtl
usemtl default
v 0.541644 6.360000 0.000000
v 0.542354 4.850000 0.000000
v -2.770000 4.850000 0.000000
v -2.770000 6.360000 0.000000
v -0.760000 6.360000 0.000000
v -0.760000 7.410000 0.000000
v 0.541531 7.410000 0.000000
v 0.542354 4.850000 -0.200000
v -2.770000 4.850000 -0.200000
v -2.770000 6.360000 -0.200000
v -0.760000 6.360000 -0.200000
v -0.760000 7.410000 -0.200000
v 0.541531 7.410000 -0.200000
v 0.541616 6.360000 -0.200000
vt 0.764190 0.013471
vt 0.957688 0.013471
vt 0.957688 0.245669
vt 0.764190 0.245669
vt 0.764190 0.616081
vt 0.485921 0.616081
vt 0.485921 0.006100
vt 0.476485 0.608709
vt 0.282987 0.608709
vt 0.476485 0.376511
vt 0.282987 0.006100
vt 0.282987 0.376511
vt 0.004718 0.006100
vt 0.004718 0.616081
vt 0.037963 0.903232
vt 0.037963 0.624963
vt 0.074820 0.903232
vt 0.074819 0.624963
vt 0.962775 0.616081
vt 0.962775 0.006100
vt 0.999631 0.616081
vt 0.999631 0.006100
vt 0.075557 0.903232
vt 0.075557 0.624963
vt 0.112414 0.903232
vt 0.112413 0.624963
vt 0.037225 0.625885
vt 0.037225 0.996296
vt 0.000369 0.625885
vt 0.000369 0.996296
vt 0.188339 0.817614
vt 0.188339 0.624115
vt 0.225196 0.817614
vt 0.225196 0.624115
vt 0.113151 0.856701
vt 0.113151 0.624502
vt 0.150008 0.856701
vt 0.150008 0.624502
vt 0.150745 0.817614
vt 0.150745 0.624115
vt 0.187602 0.817614
vt 0.187602 0.624115
vn 0.0000 0.0000 1.0000
vn 0.0000 0.0000 -1.0000
vn 0.7070 0.0002 -0.7072
vn 0.7072 0.0003 -0.7070
vn 1.0000 0.0003 -0.0001
vn 1.0000 0.0005 -0.0000
vn 0.0000 -1.0000 0.0000
vn -1.0000 0.0000 0.0000
vn 0.0000 1.0000 0.0000
vn 1.0000 0.0001 0.0000
f 1/1/1 7/2/1 6/3/1
f 5/4/1 4/5/1 3/6/1
f 3/6/1 2/7/1 1/1/1
f 1/1/1 6/3/1 5/4/1
f 5/4/1 3/6/1 1/1/1
f 13/8/2 14/9/3 12/10/2
f 10/11/2 11/12/2 9/13/2
f 8/14/4 9/13/2 14/9/3
f 12/10/2 14/9/3 11/12/2
f 9/13/2 11/12/2 14/9/3
f 1/15/5 2/16/6 14/17/3
f 14/17/3 2/16/6 8/18/4
f 2/19/7 3/20/7 8/21/7
f 8/21/7 3/20/7 9/22/7
f 3/23/8 4/24/8 9/25/8
f 9/25/8 4/24/8 10/26/8
f 4/27/9 5/28/9 10/29/9
f 10/29/9 5/28/9 11/30/9
f 5/31/8 6/32/8 11/33/8
f 11/33/8 6/32/8 12/34/8
f 6/35/9 7/36/9 12/37/9
f 12/37/9 7/36/9 13/38/9
f 7/39/10 1/40/5 13/41/10
f 13/41/10 1/40/5 14/42/3
