# Blender v2.82 (sub 7) OBJ File: 'Wainscott_1_int.blend'
# www.blender.org
mtllib ceiling.mtl
usemtl default
v -5.639999 -7.398874 2.400000
v -5.639999 13.740922 2.400000
v 7.789999 13.740922 2.400000
v -5.639999 -7.398874 2.600000
v -5.639999 13.740922 2.600000
v 7.789999 13.740922 2.600000
v 1.376689 -7.398874 2.600000
v 1.376689 -7.398874 2.400000
v 1.376689 -7.398874 2.495507
v 1.376688 -1.110396 2.600000
v 1.376688 -1.110396 2.400000
v 7.789999 -1.110397 2.400000
v 7.789999 -1.110397 2.600000
v 7.789999 -1.110396 2.540506
v 3.794963 -1.110397 2.600000
v 3.794963 -1.110397 2.400000
vt 0.491232 1.000000
vt 0.491232 0.768055
vt 0.487378 0.768055
vt 0.483855 0.089196
vt 0.489038 0.236549
vt 0.491232 0.089196
vt 0.483855 0.768055
vt 0.483855 1.000000
vt 0.491232 0.000000
vt 0.483855 0.000000
vt 0.483855 0.236549
vt 0.491232 0.236549
vt 0.493870 0.007716
vt 0.830722 0.549790
vt 0.744383 0.549790
vt 0.973355 0.007716
vt 0.999929 0.504902
vt 0.996519 0.761012
vt 0.992788 0.504902
vt 0.992645 0.779320
vt 0.985505 0.779320
vt 0.992645 0.007716
vt 0.985505 0.007716
vt 0.992788 0.004902
vt 0.999928 0.004902
vt 0.992788 0.495098
vt 0.999929 0.495098
vt 0.978221 0.779320
vt 0.980345 0.237246
vt 0.985362 0.779320
vt 0.147428 0.549790
vt 0.004795 0.007716
vt 0.484280 0.007716
vt 0.233766 0.549790
vt 0.985362 0.237246
vt 0.992788 0.761012
vt 0.744384 0.779320
vt 0.493870 0.779320
vt 0.973355 0.549790
vt 0.999929 0.761012
vt 0.978221 0.237246
vt 0.004795 0.549790
vt 0.484280 0.779320
vt 0.233766 0.779320
vn 1.0000 0.0000 0.0000
vn 0.0000 -1.0000 0.0000
vn 0.0000 0.0000 -1.0000
vn -1.0000 0.0000 0.0000
vn 0.0000 1.0000 0.0000
vn -0.0000 0.0000 1.0000
f 10/1/1 7/2/1 9/3/1
f 16/4/2 14/5/2 15/6/2
f 8/7/1 11/8/1 9/3/1
f 11/8/1 10/1/1 9/3/1
f 15/6/2 10/9/2 11/10/2
f 16/4/2 12/11/2 14/5/2
f 15/6/2 11/10/2 16/4/2
f 14/5/2 13/12/2 15/6/2
f 2/13/3 16/14/3 11/15/3
f 3/16/3 16/14/3 2/13/3
f 1/17/2 9/18/2 4/19/2
f 1/20/4 4/21/4 2/22/4
f 4/21/4 5/23/4 2/22/4
f 2/24/5 5/25/5 3/26/5
f 5/25/5 6/27/5 3/26/5
f 6/28/1 14/29/1 3/30/1
f 15/31/6 6/32/6 5/33/6
f 10/34/6 15/31/6 5/33/6
f 14/29/1 12/35/1 3/30/1
f 9/18/2 7/36/2 4/19/2
f 8/37/3 1/38/3 11/15/3
f 1/38/3 2/13/3 11/15/3
f 3/16/3 12/39/3 16/14/3
f 1/17/2 8/40/2 9/18/2
f 6/28/1 13/41/1 14/29/1
f 15/31/6 13/42/6 6/32/6
f 5/33/6 4/43/6 10/34/6
f 4/43/6 7/44/6 10/34/6
