# Blender v2.82 (sub 7) OBJ File: 'Wainscott_1_int.blend'
# www.blender.org
mtllib floor_2.mtl
usemtl default
v 3.640464 3.010080 -0.180000
v 3.640464 4.849530 -0.180000
v 7.740464 3.010080 -0.180000
v 7.740464 4.849531 -0.180000
v 3.640464 3.010080 0.000000
v 3.640464 4.849530 0.000000
v 7.740464 3.010080 0.000000
v 7.740464 4.849531 0.000000
vt 0.004272 0.009804
vt 0.431442 0.009804
vt 0.004272 0.990196
vt 0.431442 0.990196
vt 0.871849 0.990196
vt 0.871848 0.009804
vt 0.913865 0.990196
vt 0.913865 0.009804
vt 0.999580 0.441966
vt 0.957563 0.441966
vt 0.999580 0.004376
vt 0.957563 0.004376
vt 0.956723 0.990196
vt 0.914706 0.990196
vt 0.956722 0.009804
vt 0.914706 0.009804
vt 0.999580 0.888307
vt 0.957563 0.888307
vt 0.957563 0.450717
vt 0.999580 0.450717
vt 0.867157 0.990196
vt 0.439986 0.009804
vt 0.867156 0.009804
vt 0.439986 0.990196
vn 0.0000 0.0000 -1.0000
vn 0.0000 -1.0000 0.0000
vn -1.0000 0.0000 0.0000
vn -0.0000 1.0000 0.0000
vn 1.0000 0.0000 0.0000
vn 0.0000 0.0000 1.0000
f 1/1/1 2/2/1 3/3/1
f 2/2/1 4/4/1 3/3/1
f 1/5/2 3/6/2 5/7/2
f 3/6/2 7/8/2 5/7/2
f 1/9/3 5/10/3 2/11/3
f 5/10/3 6/12/3 2/11/3
f 2/13/4 6/14/4 4/15/4
f 6/14/4 8/16/4 4/15/4
f 4/17/5 8/18/5 7/19/5
f 7/19/5 3/20/5 4/17/5
f 6/21/6 7/22/6 8/23/6
f 6/21/6 5/24/6 7/22/6
