# Blender v2.82 (sub 7) OBJ File: 'Wainscott_1_int.blend'
# www.blender.org
mtllib floor_0.mtl
usemtl default
v 0.090000 8.205313 -0.180000
v 0.090000 13.265313 -0.180000
v 6.179999 8.205313 -0.180000
v 6.179999 13.265313 -0.180000
v 0.090000 8.205313 0.000000
v 0.090000 13.265313 0.000000
v 6.179999 8.205313 0.000000
v 6.179999 13.265313 0.000000
vt 0.944689 0.595879
vt 0.479325 0.595879
vt 0.944689 0.005900
vt 0.479325 0.005900
vt 0.949509 0.595879
vt 0.949509 0.005900
vt 0.966063 0.595879
vt 0.966063 0.005900
vt 0.999834 0.495098
vt 0.983280 0.495098
vt 0.999834 0.004902
vt 0.983280 0.004902
vt 0.966394 0.005900
vt 0.982949 0.005900
vt 0.966394 0.595879
vt 0.982949 0.595879
vt 0.999834 0.995098
vt 0.983280 0.995098
vt 0.983280 0.504902
vt 0.999834 0.504902
vt 0.470018 0.595879
vt 0.004654 0.005900
vt 0.470018 0.005900
vt 0.004654 0.595879
vn 0.0000 0.0000 -1.0000
vn 0.0000 -1.0000 0.0000
vn -1.0000 0.0000 0.0000
vn 0.0000 1.0000 0.0000
vn 1.0000 0.0000 0.0000
vn 0.0000 0.0000 1.0000
f 1/1/1 2/2/1 3/3/1
f 2/2/1 4/4/1 3/3/1
f 1/5/2 3/6/2 5/7/2
f 3/6/2 7/8/2 5/7/2
f 1/9/3 5/10/3 2/11/3
f 5/10/3 6/12/3 2/11/3
f 2/13/4 6/14/4 4/15/4
f 6/14/4 8/16/4 4/15/4
f 4/17/5 8/18/5 7/19/5
f 7/19/5 3/20/5 4/17/5
f 6/21/6 7/22/6 8/23/6
f 6/21/6 5/24/6 7/22/6
