# Blender v2.82 (sub 7) OBJ File: 'Wainscott_1_int.blend'
# www.blender.org
mtllib floor_3.mtl
usemtl default
v 3.640000 4.850000 0.000000
v 3.640000 3.010000 0.000000
v 7.680000 3.010000 0.000000
v -5.639999 -7.190001 0.000000
v -5.640000 5.389999 0.000000
v -5.000000 5.390000 0.000000
v -5.000000 13.790000 0.000000
v 0.080000 13.790000 0.000000
v 0.080000 5.390000 0.000000
v 2.530000 5.390000 0.000000
v 2.529999 8.190000 0.000000
v 7.699999 8.190000 0.000000
v 7.700000 4.849999 0.000000
v 3.640000 4.850000 -0.200000
v 3.640000 3.010000 -0.200000
v 7.680000 3.010000 -0.200000
v -5.639999 -7.190001 -0.200000
v -5.640000 5.389999 -0.200000
v -5.000000 5.390000 -0.200000
v -5.000000 13.790000 -0.200000
v 0.080000 13.790000 -0.200000
v 0.080000 5.390000 -0.200000
v 2.530000 5.390000 -0.200000
v 2.529999 8.190000 -0.200000
v 7.699999 8.190000 -0.200000
v 7.700000 4.849999 -0.200000
v 1.376689 -2.880181 0.000000
v 1.376689 -2.880181 -0.200000
v 1.376688 -7.190000 0.000000
v 1.376689 -7.190001 -0.151222
v 1.376688 -7.190000 -0.200000
v 1.376688 -1.278817 0.000000
v 1.376688 -1.278817 -0.200000
v 7.680000 -1.278818 0.000000
v 7.680000 -1.278817 -0.009386
v 3.374794 -1.278817 0.000000
v 3.530725 -1.278817 -0.200000
v 3.374794 -1.278817 -0.200000
v 3.640000 -1.278817 -0.200000
v 3.605928 -1.278817 -0.200000
v 3.530725 -1.278817 0.000000
v 3.605928 -1.278817 0.000000
v 3.640000 -1.278817 0.000000
v 3.829595 -1.278818 -0.200000
v 7.680000 -1.278817 -0.200000
v 3.829595 -1.278818 0.000000
vt 0.395333 0.940935
vt 0.389756 0.781971
vt 0.387957 0.940935
vt 0.387957 0.090473
vt 0.387957 0.232492
vt 0.394987 0.232492
vt 0.387957 1.000000
vt 0.395333 1.000000
vt 0.395333 0.781971
vt 0.387957 0.781971
vt 0.395334 0.073698
vt 0.395333 0.000000
vt 0.387957 0.000000
vt 0.387957 0.073698
vt 0.387957 0.079450
vt 0.395334 0.079450
vt 0.395333 0.082223
vt 0.387957 0.082223
vt 0.387957 0.083480
vt 0.395334 0.083480
vt 0.395334 0.232492
vt 0.395334 0.090473
vt 0.150703 0.336222
vt 0.004794 0.336222
vt 0.004794 0.213489
vt 0.190594 0.213489
vt 0.190594 0.316379
vt 0.278643 0.316379
vt 0.278643 0.007709
vt 0.461208 0.007709
vt 0.461208 0.316379
vt 0.484209 0.316379
vt 0.484209 0.778647
vt 0.232042 0.778647
vt 0.232042 0.620277
vt 0.232042 0.561433
vt 0.160234 0.561433
vt 0.150703 0.403835
vt 0.154630 0.561433
vt 0.151927 0.561433
vt 0.493797 0.450135
vt 0.639706 0.450135
vt 0.493797 0.572868
vt 0.679597 0.572868
vt 0.679597 0.469978
vt 0.767646 0.778647
vt 0.767646 0.469978
vt 0.950211 0.778647
vt 0.973212 0.469978
vt 0.950211 0.469978
vt 0.973212 0.007709
vt 0.649237 0.224924
vt 0.721045 0.224924
vt 0.632892 0.224924
vt 0.639706 0.382522
vt 0.494516 0.382522
vt 0.640930 0.224924
vt 0.643633 0.224924
vt 0.066054 0.854646
vt 0.066054 0.787033
vt 0.073242 0.854646
vt 0.073242 0.787033
vt 0.036729 0.936297
vt 0.036729 0.787841
vt 0.043917 0.936297
vt 0.043917 0.787841
vt 0.022066 0.953369
vt 0.022403 0.795770
vt 0.029254 0.953369
vt 0.029254 0.795770
vt 0.978078 0.466892
vt 0.978078 0.004623
vt 0.985265 0.466892
vt 0.985265 0.004623
vt 0.073386 0.810110
vt 0.073386 0.786592
vt 0.080573 0.810110
vt 0.080573 0.786592
vt 0.992741 0.311756
vt 0.992741 0.003087
vt 0.999928 0.311756
vt 0.999928 0.003087
vt 0.014735 0.974895
vt 0.014735 0.788224
vt 0.021922 0.974895
vt 0.021922 0.788224
vt 0.985409 0.311756
vt 0.985409 0.003087
vt 0.992597 0.311756
vt 0.992597 0.003087
vt 0.065911 0.787257
vt 0.065911 0.877286
vt 0.058723 0.787257
vt 0.058723 0.877286
vt 0.051392 0.890275
vt 0.051392 0.787386
vt 0.058579 0.890275
vt 0.058579 0.787386
vt 0.007403 0.978235
vt 0.007403 0.788257
vt 0.014591 0.978235
vt 0.014591 0.788257
vt 0.044060 0.910317
vt 0.044060 0.787584
vt 0.051248 0.910317
vt 0.051248 0.787584
vt 0.721045 0.166080
vt 0.721045 0.007709
vt 0.494516 0.224924
vt 0.143889 0.561433
vt 0.150703 0.561433
vt 0.005513 0.561433
vt 0.005513 0.403835
vt 0.979831 0.558092
vt 0.978078 0.815930
vt 0.978078 0.558092
vt 0.985265 0.558092
vt 0.985265 0.815930
vt 0.639706 0.224924
vt 0.022066 0.795770
vn 1.0000 0.0000 0.0000
vn 0.0000 -1.0000 0.0000
vn 0.0000 0.0000 1.0000
vn 0.0000 0.0000 -1.0000
vn 0.0000 1.0000 0.0000
vn -1.0000 0.0000 0.0000
f 27/1/1 30/2/1 28/3/1
f 44/4/2 45/5/2 35/6/2
f 28/3/1 33/7/1 32/8/1
f 27/1/1 29/9/1 30/2/1
f 28/3/1 32/8/1 27/1/1
f 30/2/1 31/10/1 28/3/1
f 36/11/2 32/12/2 33/13/2
f 33/13/2 38/14/2 36/11/2
f 38/14/2 37/15/2 41/16/2
f 42/17/2 37/15/2 40/18/2
f 40/18/2 39/19/2 43/20/2
f 39/19/2 44/4/2 43/20/2
f 40/18/2 43/20/2 42/17/2
f 37/15/2 42/17/2 41/16/2
f 41/16/2 36/11/2 38/14/2
f 34/21/2 46/22/2 35/6/2
f 46/22/2 43/20/2 44/4/2
f 35/6/2 46/22/2 44/4/2
f 1/23/3 13/24/3 12/25/3
f 12/25/3 11/26/3 10/27/3
f 9/28/3 8/29/3 7/30/3
f 6/31/3 5/32/3 4/33/3
f 4/33/3 29/34/3 27/35/3
f 1/23/3 12/25/3 10/27/3
f 9/28/3 7/30/3 6/31/3
f 32/36/3 36/37/3 6/31/3
f 2/38/3 1/23/3 10/27/3
f 9/28/3 36/37/3 41/39/3
f 10/27/3 41/39/3 42/40/3
f 26/41/4 14/42/4 25/43/4
f 24/44/4 25/43/4 23/45/4
f 21/46/4 22/47/4 20/48/4
f 18/49/4 19/50/4 17/51/4
f 25/43/4 14/42/4 23/45/4
f 20/48/4 22/47/4 19/50/4
f 19/50/4 38/52/4 33/53/4
f 44/54/4 15/55/4 16/56/4
f 14/42/4 15/55/4 23/45/4
f 22/47/4 38/52/4 19/50/4
f 15/55/4 40/57/4 23/45/4
f 23/45/4 37/58/4 22/47/4
f 1/59/1 2/60/1 14/61/1
f 14/61/1 2/60/1 15/62/1
f 2/63/5 3/64/5 15/65/5
f 15/65/5 3/64/5 16/66/5
f 3/67/1 35/68/1 16/69/1
f 16/69/1 35/68/1 45/70/1
f 4/71/6 5/72/6 17/73/6
f 17/73/6 5/72/6 18/74/6
f 5/75/5 6/76/5 18/77/5
f 18/77/5 6/76/5 19/78/5
f 6/79/6 7/80/6 19/81/6
f 19/81/6 7/80/6 20/82/6
f 7/83/5 8/84/5 20/85/5
f 20/85/5 8/84/5 21/86/5
f 8/87/1 9/88/1 21/89/1
f 21/89/1 9/88/1 22/90/1
f 9/91/5 10/92/5 22/93/5
f 22/93/5 10/92/5 23/94/5
f 10/95/6 11/96/6 23/97/6
f 23/97/6 11/96/6 24/98/6
f 11/99/5 12/100/5 24/101/5
f 24/101/5 12/100/5 25/102/5
f 12/103/1 13/104/1 25/105/1
f 25/105/1 13/104/1 26/106/1
f 28/107/4 31/108/4 17/51/4
f 45/109/4 44/54/4 16/56/4
f 46/110/3 2/38/3 43/111/3
f 46/110/3 34/112/3 3/113/3
f 30/114/2 17/115/2 31/116/2
f 42/40/3 2/38/3 10/27/3
f 30/114/2 29/117/2 4/118/2
f 6/31/3 4/33/3 32/36/3
f 4/33/3 27/35/3 32/36/3
f 9/28/3 6/31/3 36/37/3
f 10/27/3 9/28/3 41/39/3
f 28/107/4 17/51/4 33/53/4
f 17/51/4 19/50/4 33/53/4
f 44/54/4 39/119/4 15/55/4
f 22/47/4 37/58/4 38/52/4
f 15/55/4 39/119/4 40/57/4
f 23/45/4 40/57/4 37/58/4
f 3/67/1 34/120/1 35/68/1
f 46/110/3 3/113/3 2/38/3
f 30/114/2 4/118/2 17/115/2
f 42/40/3 43/111/3 2/38/3
