# Blender v2.82 (sub 7) OBJ File: 'Beechwood_1_int.blend'
# www.blender.org
mtllib floor_1.mtl
usemtl default
v -7.396829 1.363903 -0.180000
v -7.396829 -3.636097 -0.180000
v -11.436830 1.363903 -0.180000
v -11.436830 -3.636097 -0.180000
v -7.396829 1.363903 0.000000
v -7.396829 -3.636097 0.000000
v -11.436830 1.363903 0.000000
v -11.436830 -3.636097 0.000000
vt 0.464083 0.006067
vt 0.464083 0.612745
vt 0.004595 0.006067
vt 0.004595 0.612745
vt 0.999795 0.504902
vt 0.999795 0.995098
vt 0.979323 0.504902
vt 0.979323 0.995098
vt 0.978914 0.612745
vt 0.958441 0.612745
vt 0.978914 0.006067
vt 0.958441 0.006067
vt 0.979323 0.004902
vt 0.999795 0.004902
vt 0.979323 0.495098
vt 0.999795 0.495098
vt 0.958032 0.612745
vt 0.937560 0.612745
vt 0.937560 0.006067
vt 0.958032 0.006067
vt 0.932760 0.006067
vt 0.473272 0.612745
vt 0.473272 0.006067
vt 0.932760 0.612745
vn 0.0000 0.0000 -1.0000
vn -0.0000 1.0000 0.0000
vn 1.0000 0.0000 0.0000
vn 0.0000 -1.0000 0.0000
vn -1.0000 0.0000 0.0000
vn 0.0000 0.0000 1.0000
f 1/1/1 2/2/1 3/3/1
f 2/2/1 4/4/1 3/3/1
f 1/5/2 3/6/2 5/7/2
f 3/6/2 7/8/2 5/7/2
f 1/9/3 5/10/3 2/11/3
f 5/10/3 6/12/3 2/11/3
f 2/13/4 6/14/4 4/15/4
f 6/14/4 8/16/4 4/15/4
f 4/17/5 8/18/5 7/19/5
f 7/19/5 3/20/5 4/17/5
f 6/21/6 7/22/6 8/23/6
f 6/21/6 5/24/6 7/22/6
