# Blender v2.82 (sub 7) OBJ File: 'Merom_0_int.blend'
# www.blender.org
mtllib floor_1.mtl
usemtl default
v 5.380000 4.100000 -0.180000
v 5.380000 -2.180000 -0.180000
v 1.230000 4.100000 -0.180000
v 1.230000 -2.180000 -0.180000
v 5.380000 4.100000 0.000000
v 5.380000 -2.180000 0.000000
v 1.230000 4.100000 0.000000
v 1.230000 -2.180000 0.000000
vt 0.004603 0.749209
vt 0.004603 0.007418
vt 0.464854 0.749208
vt 0.464854 0.007418
vt 0.999800 0.004902
vt 0.999800 0.495098
vt 0.979838 0.004902
vt 0.979838 0.495098
vt 0.959076 0.749209
vt 0.939114 0.749209
vt 0.959076 0.007418
vt 0.939113 0.007418
vt 0.979838 0.504902
vt 0.999800 0.504902
vt 0.979838 0.995098
vt 0.999800 0.995098
vt 0.979438 0.749209
vt 0.959476 0.749209
vt 0.959476 0.007418
vt 0.979438 0.007418
vt 0.474059 0.749209
vt 0.934311 0.007418
vt 0.934311 0.749208
vt 0.474059 0.007418
vn 0.0000 0.0000 -1.0000
vn 0.0000 1.0000 0.0000
vn 1.0000 0.0000 0.0000
vn 0.0000 -1.0000 0.0000
vn -1.0000 -0.0000 0.0000
vn 0.0000 0.0000 1.0000
f 1/1/1 2/2/1 3/3/1
f 2/2/1 4/4/1 3/3/1
f 1/5/2 3/6/2 5/7/2
f 3/6/2 7/8/2 5/7/2
f 1/9/3 5/10/3 2/11/3
f 5/10/3 6/12/3 2/11/3
f 2/13/4 6/14/4 4/15/4
f 6/14/4 8/16/4 4/15/4
f 4/17/5 8/18/5 7/19/5
f 7/19/5 3/20/5 4/17/5
f 6/21/6 7/22/6 8/23/6
f 6/21/6 5/24/6 7/22/6
