# Blender v2.82 (sub 7) OBJ File: 'Benevolence_0_int.blend'
# www.blender.org
mtllib ceiling.mtl
usemtl default
v -3.879796 -7.890000 2.400000
v -3.879796 -0.010204 2.400000
v 1.500000 -7.890000 2.400000
v 1.500000 -0.010204 2.400000
v -3.879796 -7.890000 2.600000
v -3.879796 -0.010204 2.600000
v 1.500000 -7.890000 2.600000
v 1.500000 -0.010204 2.600000
vt 0.478234 0.725171
vt 0.478234 0.007180
vt 0.942538 0.725171
vt 0.942538 0.007180
vt 0.982566 0.495098
vt 0.982566 0.004902
vt 0.999827 0.495098
vt 0.999827 0.004902
vt 0.964615 0.725171
vt 0.947354 0.725171
vt 0.964615 0.007180
vt 0.947354 0.007180
vt 0.999827 0.995098
vt 0.982566 0.995098
vt 0.999827 0.504902
vt 0.982566 0.504902
vt 0.982221 0.725171
vt 0.964960 0.725171
vt 0.964960 0.007180
vt 0.982221 0.007180
vt 0.004643 0.725171
vt 0.468947 0.007180
vt 0.468947 0.725171
vt 0.004643 0.007180
vn 0.0000 0.0000 -1.0000
vn 0.0000 -1.0000 0.0000
vn -1.0000 -0.0000 0.0000
vn -0.0000 1.0000 0.0000
vn 1.0000 0.0000 0.0000
vn -0.0000 0.0000 1.0000
f 1/1/1 2/2/1 3/3/1
f 2/2/1 4/4/1 3/3/1
f 1/5/2 3/6/2 5/7/2
f 3/6/2 7/8/2 5/7/2
f 1/9/3 5/10/3 2/11/3
f 5/10/3 6/12/3 2/11/3
f 2/13/4 6/14/4 4/15/4
f 6/14/4 8/16/4 4/15/4
f 4/17/5 8/18/5 7/19/5
f 7/19/5 3/20/5 4/17/5
f 6/21/6 7/22/6 8/23/6
f 6/21/6 5/24/6 7/22/6
