# Blender v2.82 (sub 7) OBJ File: 'Benevolence_0_int.blend'
# www.blender.org
mtllib floor_0.mtl
usemtl default
v -1.540000 -0.080000 -0.180000
v -1.540000 -4.670000 -0.180000
v -3.810000 -0.080000 -0.180000
v -3.810000 -4.670000 -0.180000
v -1.540000 -0.080000 0.000000
v -1.540000 -4.670000 0.000000
v -3.810000 -0.080000 0.000000
v -3.810000 -4.670000 0.000000
vt 0.889319 0.009804
vt 0.889319 0.990196
vt 0.451231 0.009804
vt 0.451231 0.990196
vt 0.999653 0.499402
vt 0.999653 0.984258
vt 0.964914 0.499402
vt 0.964914 0.984258
vt 0.928786 0.990196
vt 0.894048 0.990196
vt 0.928786 0.009804
vt 0.894048 0.009804
vt 0.964914 0.004849
vt 0.999653 0.004849
vt 0.964914 0.489705
vt 0.999653 0.489705
vt 0.964220 0.990196
vt 0.929481 0.990196
vt 0.929481 0.009804
vt 0.964219 0.009804
vt 0.442469 0.009804
vt 0.004381 0.990196
vt 0.004381 0.009804
vt 0.442469 0.990196
vn 0.0000 0.0000 -1.0000
vn -0.0000 1.0000 0.0000
vn 1.0000 0.0000 0.0000
vn 0.0000 -1.0000 0.0000
vn -1.0000 -0.0000 0.0000
vn 0.0000 0.0000 1.0000
f 1/1/1 2/2/1 3/3/1
f 2/2/1 4/4/1 3/3/1
f 1/5/2 3/6/2 5/7/2
f 3/6/2 7/8/2 5/7/2
f 1/9/3 5/10/3 2/11/3
f 5/10/3 6/12/3 2/11/3
f 2/13/4 6/14/4 4/15/4
f 6/14/4 8/16/4 4/15/4
f 4/17/5 8/18/5 7/19/5
f 7/19/5 3/20/5 4/17/5
f 6/21/6 7/22/6 8/23/6
f 6/21/6 5/24/6 7/22/6
