# Blender v2.82 (sub 7) OBJ File: 'Rs.blend'
# www.blender.org
mtllib ceiling.mtl
usemtl default
v -4.270000 -4.392959 2.400000
v -4.270000 3.847041 2.400000
v 2.940000 -4.392959 2.400000
v 2.940000 3.847041 2.400000
v -4.270000 -4.392959 2.600000
v -4.270000 3.847041 2.600000
v 2.940000 -4.392959 2.600000
v 2.940000 3.847041 2.600000
vt 0.004706 0.565826
vt 0.004706 0.005602
vt 0.475320 0.565826
vt 0.475320 0.005602
vt 0.986815 0.495098
vt 0.986815 0.004902
vt 0.999869 0.495098
vt 0.999869 0.004902
vt 0.973238 0.565826
vt 0.960184 0.565826
vt 0.973238 0.005602
vt 0.960184 0.005602
vt 0.999869 0.995098
vt 0.986815 0.995098
vt 0.999869 0.504902
vt 0.986815 0.504902
vt 0.986554 0.565826
vt 0.973499 0.565826
vt 0.973499 0.005602
vt 0.986554 0.005602
vt 0.484733 0.565826
vt 0.955347 0.005602
vt 0.955347 0.565826
vt 0.484733 0.005602
vn 0.0000 0.0000 -1.0000
vn 0.0000 -1.0000 0.0000
vn -1.0000 0.0000 0.0000
vn -0.0000 1.0000 0.0000
vn 1.0000 0.0000 0.0000
vn 0.0000 0.0000 1.0000
f 1/1/1 2/2/1 3/3/1
f 2/2/1 4/4/1 3/3/1
f 1/5/2 3/6/2 5/7/2
f 3/6/2 7/8/2 5/7/2
f 1/9/3 5/10/3 2/11/3
f 5/10/3 6/12/3 2/11/3
f 2/13/4 6/14/4 4/15/4
f 6/14/4 8/16/4 4/15/4
f 4/17/5 8/18/5 7/19/5
f 7/19/5 3/20/5 4/17/5
f 6/21/6 7/22/6 8/23/6
f 6/21/6 5/24/6 7/22/6
