# Blender v2.82 (sub 7) OBJ File: 'Rs.blend'
# www.blender.org
mtllib floor_1.mtl
usemtl default
v -2.080000 3.807041 -0.180000
v -2.080000 1.517041 -0.180000
v -4.260000 3.807041 -0.180000
v -4.260000 1.517041 -0.180000
v -2.080000 3.807041 0.000000
v -2.080000 1.517041 0.000000
v -4.260000 3.807041 0.000000
v -4.260000 1.517041 0.000000
vt 0.484884 0.495098
vt 0.484884 0.004902
vt 0.955645 0.495098
vt 0.955645 0.004902
vt 0.078907 0.504667
vt 0.078907 0.971316
vt 0.040036 0.504667
vt 0.040036 0.971316
vt 0.999611 0.495098
vt 0.960741 0.495098
vt 0.999611 0.004902
vt 0.960741 0.004902
vt 0.079684 0.504667
vt 0.118554 0.504667
vt 0.079684 0.971316
vt 0.118554 0.971316
vt 0.039259 0.995098
vt 0.000389 0.995098
vt 0.000389 0.504902
vt 0.039259 0.504902
vt 0.004708 0.495098
vt 0.475469 0.004902
vt 0.475469 0.495098
vt 0.004708 0.004902
vn 0.0000 0.0000 -1.0000
vn -0.0000 1.0000 0.0000
vn 1.0000 0.0000 0.0000
vn 0.0000 -1.0000 0.0000
vn -1.0000 0.0000 0.0000
vn 0.0000 0.0000 1.0000
f 1/1/1 2/2/1 3/3/1
f 2/2/1 4/4/1 3/3/1
f 1/5/2 3/6/2 5/7/2
f 3/6/2 7/8/2 5/7/2
f 1/9/3 5/10/3 2/11/3
f 5/10/3 6/12/3 2/11/3
f 2/13/4 6/14/4 4/15/4
f 6/14/4 8/16/4 4/15/4
f 4/17/5 8/18/5 7/19/5
f 7/19/5 3/20/5 4/17/5
f 6/21/6 7/22/6 8/23/6
f 6/21/6 5/24/6 7/22/6
